<svg xmlns="http://www.w3.org/2000/svg" viewBox="0 0 64 64" width="64" height="64">
  <defs>
    <linearGradient id="mottusGrad" x1="0%" y1="0%" x2="100%" y2="100%">
      <stop offset="0%" stop-color="#6E8842" />
      <stop offset="100%" stop-color="#4D602E" />
    </linearGradient>
    <filter id="mottusShadow" x="-20%" y="-20%" width="140%" height="140%">
      <feDropShadow dx="0" dy="2" stdDeviation="2.5" flood-color="#000000" flood-opacity="0.35" />
    </filter>
  </defs>

  <!-- Background rounded box -->
  <rect width="64" height="64" rx="19" fill="url(#mottusGrad)" />

  <!-- Subtle inner border -->
  <rect x="1" y="1" width="62" height="62" rx="18" fill="none" stroke="#FFFFFF" stroke-width="1" stroke-opacity="0.25" />

  <!-- Centered Lucide Dumbbell icon -->
  <g transform="translate(14.6, 14.6) scale(1.45)" stroke="#FFFFFF" stroke-width="2.2" stroke-linecap="round" stroke-linejoin="round" fill="none" filter="url(#mottusShadow)">
    <path d="M17.596 12.768a2 2 0 1 0 2.829-2.829l-1.768-1.767a2 2 0 0 0 2.828-2.829l-2.828-2.828a2 2 0 0 0-2.829 2.828l-1.767-1.768a2 2 0 1 0-2.829 2.829z" />
    <path d="m2.5 21.5 1.4-1.4" />
    <path d="m20.1 3.9 1.4-1.4" />
    <path d="M5.343 21.485a2 2 0 1 0 2.829-2.828l1.767 1.768a2 2 0 1 0 2.829-2.829l-6.364-6.364a2 2 0 1 0-2.829 2.829l1.768 1.767a2 2 0 0 0-2.828 2.829z" />
    <path d="m9.6 14.4 4.8-4.8" />
  </g>
</svg>